<?xml version="1.0" encoding="UTF-8"?>
<!DOCTYPE svg PUBLIC "-//W3C//DTD SVG 1.1//EN" "http://www.w3.org/Graphics/SVG/1.1/DTD/svg11.dtd">
<svg xmlns="http://www.w3.org/2000/svg" version="1.1" width="500px" height="500px" style="shape-rendering:geometricPrecision; text-rendering:geometricPrecision; image-rendering:optimizeQuality; fill-rule:evenodd; clip-rule:evenodd" xmlns:xlink="http://www.w3.org/1999/xlink">
<g><path style="opacity:0.463" fill="#929292" d="M 365.5,48.5 C 365.067,42.6466 362.067,40.9799 356.5,43.5C 358.809,40.7798 361.475,40.2798 364.5,42C 366.608,44.0164 366.942,46.1831 365.5,48.5 Z"/></g>
<g><path style="opacity:0.999" fill="#070707" d="M 356.5,43.5 C 362.067,40.9799 365.067,42.6466 365.5,48.5C 364.069,49.7804 363.402,51.4471 363.5,53.5C 362.069,54.7804 361.402,56.4471 361.5,58.5C 361.365,60.5542 362.032,62.2209 363.5,63.5C 365.792,65.2671 368.458,66.2671 371.5,66.5C 383.64,69.9903 393.973,76.3236 402.5,85.5C 403.08,87.7488 404.413,89.4154 406.5,90.5C 406.738,92.4044 407.738,93.7377 409.5,94.5C 409.427,96.0269 410.094,97.0269 411.5,97.5C 413.293,99.4261 414.293,101.759 414.5,104.5C 414.294,107.495 414.96,110.162 416.5,112.5C 417.655,119.655 417.822,126.988 417,134.5C 416.299,138.109 415.132,141.442 413.5,144.5C 411.043,147.751 409.376,151.418 408.5,155.5C 407.331,158.511 405.664,161.178 403.5,163.5C 402.094,163.973 401.427,164.973 401.5,166.5C 401.5,167.167 401.167,167.5 400.5,167.5C 399.5,167.833 398.833,168.5 398.5,169.5C 395.875,172.815 392.542,175.149 388.5,176.5C 387.504,176.414 386.671,176.748 386,177.5C 385.333,186.167 385.333,194.833 386,203.5C 386.383,204.056 386.883,204.389 387.5,204.5C 398.884,204.21 410.217,204.543 421.5,205.5C 422.458,217.116 422.791,228.783 422.5,240.5C 422.5,241.5 422.5,242.5 422.5,243.5C 420.993,251.192 418.993,258.859 416.5,266.5C 416.672,267.492 416.338,268.158 415.5,268.5C 414.094,268.973 413.427,269.973 413.5,271.5C 411.413,272.585 410.08,274.251 409.5,276.5C 409.167,277.5 408.5,278.167 407.5,278.5C 405.596,278.738 404.262,279.738 403.5,281.5C 401.447,281.402 399.78,282.069 398.5,283.5C 398.167,283.5 397.833,283.5 397.5,283.5C 392.785,283.506 388.118,284.006 383.5,285C 382.874,285.75 382.374,286.584 382,287.5C 380.642,304.556 378.809,321.556 376.5,338.5C 376.737,339.791 376.404,340.791 375.5,341.5C 374.069,342.78 373.402,344.447 373.5,346.5C 372.326,347.514 371.66,348.847 371.5,350.5C 370.89,352.434 369.89,354.101 368.5,355.5C 367.094,355.973 366.427,356.973 366.5,358.5C 366.573,360.027 365.906,361.027 364.5,361.5C 362.086,362.911 360.419,364.911 359.5,367.5C 357.596,367.738 356.262,368.738 355.5,370.5C 355.5,371.167 355.167,371.5 354.5,371.5C 352.973,371.427 351.973,372.094 351.5,373.5C 350.564,374.974 349.23,375.974 347.5,376.5C 345.973,376.427 344.973,377.094 344.5,378.5C 340.581,379.387 336.915,380.721 333.5,382.5C 329.542,382.251 325.876,382.918 322.5,384.5C 321.833,384.5 321.167,384.5 320.5,384.5C 314.477,384.669 308.477,385.169 302.5,386C 301.874,386.75 301.374,387.584 301,388.5C 299.543,405.43 299.043,422.43 299.5,439.5C 298.569,443.429 296.236,446.095 292.5,447.5C 277.08,451.611 261.413,452.611 245.5,450.5C 242.012,450.46 238.679,449.793 235.5,448.5C 232.619,446.32 229.286,445.32 225.5,445.5C 225.167,445.5 224.833,445.5 224.5,445.5C 222.562,443.837 220.228,443.171 217.5,443.5C 213.915,441.194 209.915,439.861 205.5,439.5C 202.256,438.537 199.256,437.204 196.5,435.5C 195.817,433.824 194.483,433.157 192.5,433.5C 192.027,432.094 191.027,431.427 189.5,431.5C 188.508,431.672 187.842,431.338 187.5,430.5C 186.486,429.326 185.153,428.66 183.5,428.5C 182.738,426.738 181.404,425.738 179.5,425.5C 179.027,424.094 178.027,423.427 176.5,423.5C 174.761,420.757 172.427,418.757 169.5,417.5C 168.5,417.167 167.833,416.5 167.5,415.5C 167.167,413.167 165.833,411.833 163.5,411.5C 161.167,409.833 159.167,407.833 157.5,405.5C 156.5,403.833 155.167,402.5 153.5,401.5C 151.833,400.5 150.5,399.167 149.5,397.5C 149.573,395.973 148.906,394.973 147.5,394.5C 144.432,392.506 143.765,389.839 145.5,386.5C 147.074,384.898 147.741,382.898 147.5,380.5C 149.751,374.818 151.084,368.818 151.5,362.5C 151.205,360.265 151.539,358.265 152.5,356.5C 153.473,354.052 153.806,351.385 153.5,348.5C 150.215,348.79 147.215,348.123 144.5,346.5C 143.118,339.92 142.284,333.253 142,326.5C 141.626,324.509 140.793,322.842 139.5,321.5C 138.596,320.791 138.263,319.791 138.5,318.5C 138.715,316.821 138.048,315.821 136.5,315.5C 135.508,315.672 134.842,315.338 134.5,314.5C 134.027,313.094 133.027,312.427 131.5,312.5C 131.167,312.5 130.833,312.5 130.5,312.5C 130.027,311.094 129.027,310.427 127.5,310.5C 126.508,310.672 125.842,310.338 125.5,309.5C 124.415,307.413 122.749,306.08 120.5,305.5C 118.5,302.833 116.167,300.5 113.5,298.5C 112.833,298.5 112.5,298.167 112.5,297.5C 111.544,294.561 109.877,292.228 107.5,290.5C 107.5,290.167 107.5,289.833 107.5,289.5C 105.674,284.516 103.341,279.849 100.5,275.5C 99.2616,273.786 98.595,271.786 98.5,269.5C 98.5,262.833 98.5,256.167 98.5,249.5C 99.9238,247.485 100.59,245.152 100.5,242.5C 100.263,241.209 100.596,240.209 101.5,239.5C 103.922,238.308 104.922,236.308 104.5,233.5C 104.243,229.664 102.91,226.331 100.5,223.5C 99.0687,222.22 98.4021,220.553 98.5,218.5C 97.8041,213.079 96.1374,208.079 93.5,203.5C 90.5248,191.305 89.8581,178.972 91.5,166.5C 92.9573,161.402 93.624,156.069 93.5,150.5C 93.322,146.878 93.9886,143.544 95.5,140.5C 96.9238,138.485 97.5905,136.152 97.5,133.5C 100.239,126.351 104.239,120.017 109.5,114.5C 111.404,114.262 112.738,113.262 113.5,111.5C 119.185,105.711 126.185,103.045 134.5,103.5C 136.258,100.146 137.258,96.479 137.5,92.5C 138.828,87.8349 141.161,83.8349 144.5,80.5C 145.906,80.0269 146.573,79.0269 146.5,77.5C 148.962,74.5361 151.629,71.7028 154.5,69C 159.051,65.5658 163.718,62.3991 168.5,59.5C 170.027,59.573 171.027,58.9063 171.5,57.5C 179.875,52.4852 188.875,48.8186 198.5,46.5C 201.152,46.5905 203.485,45.9238 205.5,44.5C 209.233,43.0227 213.233,42.1894 217.5,42C 246.651,40.3902 275.651,41.7235 304.5,46C 318.167,46.6667 331.833,46.6667 345.5,46C 349.285,45.5926 352.952,44.7593 356.5,43.5 Z M 234.5,117.5 C 235.262,119.262 236.596,120.262 238.5,120.5C 239.262,122.262 240.596,123.262 242.5,123.5C 243.262,125.262 244.596,126.262 246.5,126.5C 246.973,127.906 247.973,128.573 249.5,128.5C 249.842,129.338 250.508,129.672 251.5,129.5C 251.973,130.906 252.973,131.573 254.5,131.5C 257.314,133.07 260.314,134.403 263.5,135.5C 268.989,138.613 274.656,140.28 280.5,140.5C 294.697,143.532 309.031,144.199 323.5,142.5C 326.152,142.59 328.485,141.924 330.5,140.5C 335.272,139.801 339.605,138.134 343.5,135.5C 344.492,135.672 345.158,135.338 345.5,134.5C 347.553,134.598 349.22,133.931 350.5,132.5C 351.492,132.672 352.158,132.338 352.5,131.5C 354.674,131.25 356.341,130.25 357.5,128.5C 359.234,127.438 360.901,127.438 362.5,128.5C 362.427,130.027 363.094,131.027 364.5,131.5C 365.692,133.113 366.692,134.78 367.5,136.5C 368.544,141.355 369.877,146.022 371.5,150.5C 371.42,153.781 372.087,156.781 373.5,159.5C 375.316,174.105 376.316,188.772 376.5,203.5C 331.334,204.295 286.334,205.295 241.5,206.5C 225.497,206.333 209.497,206.5 193.5,207C 190.809,207.156 188.476,207.989 186.5,209.5C 185.883,209.611 185.383,209.944 185,210.5C 184.183,216.016 184.349,221.35 185.5,226.5C 186.709,237.45 189.709,247.783 194.5,257.5C 195.858,265.222 199.525,271.556 205.5,276.5C 205.856,278.19 206.856,279.19 208.5,279.5C 209.167,282.167 210.833,283.833 213.5,284.5C 214.585,286.587 216.251,287.92 218.5,288.5C 219.209,289.404 220.209,289.737 221.5,289.5C 223.858,291.129 226.524,292.295 229.5,293C 237.493,293.5 245.493,293.666 253.5,293.5C 262.168,293.454 270.501,292.121 278.5,289.5C 281.921,289.482 284.588,288.149 286.5,285.5C 288.027,285.573 289.027,284.906 289.5,283.5C 290.833,282.833 291.833,281.833 292.5,280.5C 295.538,278.644 297.204,276.31 297.5,273.5C 297.5,273.167 297.5,272.833 297.5,272.5C 302.649,264.565 305.315,255.899 305.5,246.5C 305.5,246.167 305.5,245.833 305.5,245.5C 306.884,240.056 307.55,234.389 307.5,228.5C 307.5,227.5 307.5,226.5 307.5,225.5C 308.201,222.437 308.868,219.27 309.5,216C 314.489,215.501 319.489,215.334 324.5,215.5C 324.216,217.415 324.549,219.081 325.5,220.5C 325.822,226.358 325.489,232.025 324.5,237.5C 322.183,236.058 320.016,236.392 318,238.5C 317.297,241.482 317.797,244.149 319.5,246.5C 320.479,250.461 322.479,253.794 325.5,256.5C 325.833,257.167 326.167,257.833 326.5,258.5C 326.5,259.833 327.167,260.5 328.5,260.5C 328.328,261.492 328.662,262.158 329.5,262.5C 329.738,264.404 330.738,265.738 332.5,266.5C 332.5,267.833 333.167,268.5 334.5,268.5C 334.932,269.71 335.599,270.71 336.5,271.5C 337.833,275.833 337.833,280.167 336.5,284.5C 335.833,284.5 335.5,284.833 335.5,285.5C 332.071,287.448 328.405,288.948 324.5,290C 322.392,292.016 322.058,294.183 323.5,296.5C 323.881,297.931 324.881,298.764 326.5,299C 328.066,299.765 329.399,299.598 330.5,298.5C 332.099,298.768 333.432,298.434 334.5,297.5C 336.38,297.771 337.713,297.104 338.5,295.5C 340.833,295.167 342.167,293.833 342.5,291.5C 343.167,291.5 343.5,291.167 343.5,290.5C 344.922,290.25 345.922,289.417 346.5,288C 354.011,287.829 361.345,287.329 368.5,286.5C 370.112,287.452 371.612,287.786 373,287.5C 373.494,289.134 373.66,290.801 373.5,292.5C 372.146,299.648 371.146,306.982 370.5,314.5C 369.335,319.633 368.668,324.966 368.5,330.5C 367.566,331.568 367.232,332.901 367.5,334.5C 366.262,336.214 365.595,338.214 365.5,340.5C 363.659,342.849 362.326,345.515 361.5,348.5C 359.75,349.659 358.75,351.326 358.5,353.5C 356.738,354.262 355.738,355.596 355.5,357.5C 352.833,359.5 350.5,361.833 348.5,364.5C 346.973,364.427 345.973,365.094 345.5,366.5C 343.973,366.427 342.973,367.094 342.5,368.5C 341.508,368.328 340.842,368.662 340.5,369.5C 336.605,370.462 332.939,371.796 329.5,373.5C 326.721,373.279 324.054,373.612 321.5,374.5C 294.466,377.328 267.466,376.995 240.5,373.5C 238.401,372.388 236.067,371.721 233.5,371.5C 233.167,371.5 232.833,371.5 232.5,371.5C 227.047,369.125 221.381,367.125 215.5,365.5C 215.158,364.662 214.492,364.328 213.5,364.5C 209.818,361.992 205.818,359.992 201.5,358.5C 200.205,357.512 198.872,356.512 197.5,355.5C 196.415,353.413 194.749,352.08 192.5,351.5C 192.5,350.167 191.833,349.5 190.5,349.5C 189.205,348.512 187.872,347.512 186.5,346.5C 185.243,343.573 183.243,341.239 180.5,339.5C 180.002,336.674 178.669,334.34 176.5,332.5C 176.771,330.62 176.104,329.287 174.5,328.5C 174.204,326.597 173.537,324.93 172.5,323.5C 172.672,322.508 172.338,321.842 171.5,321.5C 171.293,318.759 170.293,316.426 168.5,314.5C 168.34,312.847 167.674,311.514 166.5,310.5C 166.262,308.596 165.262,307.262 163.5,306.5C 160.201,303.954 156.868,303.954 153.5,306.5C 146.905,306.993 140.571,305.993 134.5,303.5C 134.027,302.094 133.027,301.427 131.5,301.5C 130.833,301.167 130.167,300.833 129.5,300.5C 129.027,299.094 128.027,298.427 126.5,298.5C 125.833,297.167 124.833,296.167 123.5,295.5C 123.167,294.5 122.5,293.833 121.5,293.5C 120.92,291.251 119.587,289.585 117.5,288.5C 117.34,286.847 116.674,285.514 115.5,284.5C 115.573,282.973 114.906,281.973 113.5,281.5C 112.674,278.515 111.341,275.849 109.5,273.5C 106.883,264.174 106.883,254.841 109.5,245.5C 110.338,245.158 110.672,244.492 110.5,243.5C 111.906,243.027 112.573,242.027 112.5,240.5C 114.262,239.738 115.262,238.404 115.5,236.5C 119.966,233.876 124.633,233.209 129.5,234.5C 131.582,234.624 133.082,235.624 134,237.5C 134.383,236.944 134.883,236.611 135.5,236.5C 137.5,239.167 139.833,241.5 142.5,243.5C 142.5,244.167 142.833,244.5 143.5,244.5C 143.285,246.179 143.952,247.179 145.5,247.5C 148.643,253.429 151.31,259.096 153.5,264.5C 153.402,266.553 154.069,268.22 155.5,269.5C 155.5,270.833 155.5,272.167 155.5,273.5C 154.833,273.167 154.167,272.833 153.5,272.5C 152.243,269.573 150.243,267.239 147.5,265.5C 147.262,263.596 146.262,262.262 144.5,261.5C 144.672,260.508 144.338,259.842 143.5,259.5C 143.262,257.596 142.262,256.262 140.5,255.5C 140.737,254.209 140.404,253.209 139.5,252.5C 141.475,250.638 141.808,248.638 140.5,246.5C 140.573,244.973 139.906,243.973 138.5,243.5C 138.179,241.952 137.179,241.285 135.5,241.5C 135.158,240.662 134.492,240.328 133.5,240.5C 129.185,237.939 124.852,237.939 120.5,240.5C 117.833,241.167 116.167,242.833 115.5,245.5C 114.094,245.973 113.427,246.973 113.5,248.5C 112.442,249.6 111.608,250.934 111,252.5C 110.19,256.358 110.357,260.024 111.5,263.5C 111.132,267.044 112.132,270.044 114.5,272.5C 114.328,273.492 114.662,274.158 115.5,274.5C 116.443,277.4 118.11,279.733 120.5,281.5C 121.585,283.587 123.251,284.92 125.5,285.5C 126.449,286.152 127.615,286.486 129,286.5C 131.008,286.693 132.508,286.026 133.5,284.5C 135.073,282.164 136.406,282.164 137.5,284.5C 137.5,286.5 138.5,287.5 140.5,287.5C 140.5,288.833 141.167,289.5 142.5,289.5C 146.767,292.367 150.767,292.033 154.5,288.5C 157.34,286.285 158.007,283.618 156.5,280.5C 156.5,280.167 156.5,279.833 156.5,279.5C 157.5,279.5 158.5,279.5 159.5,279.5C 159.5,281.5 160.5,282.5 162.5,282.5C 164.5,283.833 166.5,283.833 168.5,282.5C 170.833,282.167 172.167,280.833 172.5,278.5C 172.5,278.167 172.5,277.833 172.5,277.5C 173.533,276.088 174.199,274.422 174.5,272.5C 174.009,269.326 173.343,266.326 172.5,263.5C 172.784,261.585 172.451,259.919 171.5,258.5C 170.276,251.833 168.276,245.499 165.5,239.5C 165.552,237.097 165.219,234.764 164.5,232.5C 164.354,230.22 164.687,227.887 165.5,225.5C 166.167,225.5 166.5,225.167 166.5,224.5C 167.906,224.027 168.573,223.027 168.5,221.5C 172.566,215.836 175.399,209.502 177,202.5C 179.631,191.21 180.465,179.876 179.5,168.5C 184.071,168.023 188.404,167.023 192.5,165.5C 193.791,165.737 194.791,165.404 195.5,164.5C 198.754,164.206 201.421,162.873 203.5,160.5C 204.492,160.672 205.158,160.338 205.5,159.5C 207.027,159.573 208.027,158.906 208.5,157.5C 209.5,157.167 210.167,156.5 210.5,155.5C 212.833,155.167 214.167,153.833 214.5,151.5C 215.5,151.167 216.167,150.5 216.5,149.5C 217.906,149.027 218.573,148.027 218.5,146.5C 220.326,144.853 221.66,142.853 222.5,140.5C 223.906,140.027 224.573,139.027 224.5,137.5C 226.341,135.151 227.674,132.485 228.5,129.5C 229.931,128.22 230.598,126.553 230.5,124.5C 231.931,123.22 232.598,121.553 232.5,119.5C 233.167,118.833 233.833,118.167 234.5,117.5 Z M 407.5,213.5 C 409.167,213.5 410.833,213.5 412.5,213.5C 413.259,224.094 413.259,234.761 412.5,245.5C 411.215,248.589 410.549,251.922 410.5,255.5C 409.069,256.78 408.402,258.447 408.5,260.5C 406.992,262.181 405.992,264.181 405.5,266.5C 397.653,273.818 388.319,276.651 377.5,275C 379.382,274.802 381.048,274.302 382.5,273.5C 383.79,272.942 384.623,271.942 385,270.5C 386.57,254.54 386.904,238.54 386,222.5C 385.722,221.584 385.222,220.918 384.5,220.5C 382.989,218.559 380.989,218.059 378.5,219C 377.748,219.671 377.414,220.504 377.5,221.5C 376.711,236.524 375.711,251.69 374.5,267C 374.411,269.713 375.078,272.213 376.5,274.5C 374.709,275.17 373.042,275.837 371.5,276.5C 363.795,277.451 356.128,277.451 348.5,276.5C 348.279,273.933 347.612,271.599 346.5,269.5C 346.573,267.973 345.906,266.973 344.5,266.5C 344.262,264.596 343.262,263.262 341.5,262.5C 340.92,260.251 339.587,258.585 337.5,257.5C 337.672,256.508 337.338,255.842 336.5,255.5C 336.94,252.891 337.274,250.224 337.5,247.5C 336.739,236.951 335.739,226.451 334.5,216C 358.991,215.068 383.324,214.234 407.5,213.5 Z M 292.5,215.5 C 294.5,215.5 296.5,215.5 298.5,215.5C 297.767,223.828 297.101,232.161 296.5,240.5C 295.631,242.717 295.298,245.05 295.5,247.5C 294.532,249.607 294.198,251.941 294.5,254.5C 292.928,257.215 291.928,260.215 291.5,263.5C 289.659,265.849 288.326,268.515 287.5,271.5C 284.833,273.5 282.5,275.833 280.5,278.5C 278.302,278.875 276.302,279.542 274.5,280.5C 264.895,282.012 255.228,283.012 245.5,283.5C 238.341,283.473 231.341,282.473 224.5,280.5C 223.341,278.75 221.674,277.75 219.5,277.5C 219.167,276.5 218.5,275.833 217.5,275.5C 215.57,271.9 212.903,268.9 209.5,266.5C 209.573,264.973 208.906,263.973 207.5,263.5C 207.008,261.181 206.008,259.181 204.5,257.5C 204.204,255.597 203.537,253.93 202.5,252.5C 202.5,252.167 202.5,251.833 202.5,251.5C 200.87,244.949 198.87,238.616 196.5,232.5C 196.675,230.379 196.341,228.379 195.5,226.5C 195.5,223.833 195.5,221.167 195.5,218.5C 227.936,217.681 260.269,216.681 292.5,215.5 Z M 134.5,251.5 C 134.5,252.167 134.833,252.5 135.5,252.5C 136.833,253.5 138.167,254.5 139.5,255.5C 138.209,255.263 137.209,255.596 136.5,256.5C 134.561,257.014 133.561,258.347 133.5,260.5C 134.114,263.345 135.114,266.012 136.5,268.5C 132.684,268.263 130.351,269.929 129.5,273.5C 128.038,274.471 126.705,274.138 125.5,272.5C 125.672,271.508 125.338,270.842 124.5,270.5C 121.352,264.355 120.852,258.022 123,251.5C 124.117,249.876 125.617,248.876 127.5,248.5C 129.703,249.767 132.037,250.767 134.5,251.5 Z M 167.5,334.5 C 167.402,336.553 168.069,338.22 169.5,339.5C 169.66,341.153 170.326,342.486 171.5,343.5C 171.427,345.027 172.094,346.027 173.5,346.5C 173.5,347.167 173.833,347.5 174.5,347.5C 175.833,350.833 178.167,353.167 181.5,354.5C 183.239,357.243 185.573,359.243 188.5,360.5C 190.313,363.647 192.98,365.647 196.5,366.5C 196.973,367.906 197.973,368.573 199.5,368.5C 201.849,370.341 204.515,371.674 207.5,372.5C 208.78,373.931 210.447,374.598 212.5,374.5C 213.93,375.537 215.597,376.204 217.5,376.5C 218.93,377.537 220.597,378.204 222.5,378.5C 222.833,378.5 223.167,378.5 223.5,378.5C 224.78,379.931 226.447,380.598 228.5,380.5C 234.182,382.751 240.182,384.084 246.5,384.5C 247.167,384.5 247.833,384.5 248.5,384.5C 253.269,385.889 258.269,386.556 263.5,386.5C 273.323,387.03 282.99,387.697 292.5,388.5C 291.691,390.292 291.191,392.292 291,394.5C 290.5,408.163 290.333,421.829 290.5,435.5C 289.512,436.795 288.512,438.128 287.5,439.5C 281.764,440.799 276.098,441.799 270.5,442.5C 263.922,441.54 257.255,441.207 250.5,441.5C 250.167,441.5 249.833,441.5 249.5,441.5C 241.024,439.135 232.358,437.135 223.5,435.5C 218.058,433.129 212.392,431.129 206.5,429.5C 203.021,427.597 199.354,425.93 195.5,424.5C 193.948,421.888 191.614,420.555 188.5,420.5C 187.564,419.026 186.23,418.026 184.5,417.5C 181.129,414.129 177.463,411.129 173.5,408.5C 170.833,403.833 167.167,400.167 162.5,397.5C 161.833,396.167 160.833,395.167 159.5,394.5C 159.262,392.596 158.262,391.262 156.5,390.5C 156.5,387.833 156.5,385.167 156.5,382.5C 157.924,380.485 158.59,378.152 158.5,375.5C 162.236,362.655 164.57,349.655 165.5,336.5C 166.167,335.833 166.833,335.167 167.5,334.5 Z"/></g>
<g><path style="opacity:0.706" fill="#4c4c4c" d="M 205.5,44.5 C 203.485,45.9238 201.152,46.5905 198.5,46.5C 200.515,45.0762 202.848,44.4095 205.5,44.5 Z"/></g>
<g><path style="opacity:0.192" fill="#959595" d="M 365.5,48.5 C 365.598,50.5529 364.931,52.2196 363.5,53.5C 363.402,51.4471 364.069,49.7804 365.5,48.5 Z"/></g>
<g><path style="opacity:0.227" fill="#898989" d="M 363.5,53.5 C 363.598,55.5529 362.931,57.2196 361.5,58.5C 361.402,56.4471 362.069,54.7804 363.5,53.5 Z"/></g>
<g><path style="opacity:0.447" fill="#6f6f6f" d="M 171.5,57.5 C 171.027,58.9063 170.027,59.573 168.5,59.5C 168.973,58.0937 169.973,57.427 171.5,57.5 Z"/></g>
<g><path style="opacity:0.204" fill="#a6a6a6" d="M 363.5,63.5 C 366.542,63.7329 369.208,64.7329 371.5,66.5C 368.458,66.2671 365.792,65.2671 363.5,63.5 Z"/></g>
<g><path style="opacity:0.412" fill="#696969" d="M 146.5,77.5 C 146.573,79.0269 145.906,80.0269 144.5,80.5C 144.427,78.9731 145.094,77.9731 146.5,77.5 Z"/></g>
<g><path style="opacity:0.608" fill="#808080" d="M 402.5,85.5 C 404.587,86.5846 405.92,88.2512 406.5,90.5C 404.413,89.4154 403.08,87.7488 402.5,85.5 Z"/></g>
<g><path style="opacity:0.416" fill="#838383" d="M 406.5,90.5 C 408.262,91.2623 409.262,92.5956 409.5,94.5C 407.738,93.7377 406.738,92.4044 406.5,90.5 Z"/></g>
<g><path style="opacity:0.6" fill="#7d7d7d" d="M 137.5,92.5 C 137.258,96.479 136.258,100.146 134.5,103.5C 134.742,99.521 135.742,95.8544 137.5,92.5 Z"/></g>
<g><path style="opacity:0.188" fill="#bebebe" d="M 409.5,94.5 C 410.906,94.9731 411.573,95.9731 411.5,97.5C 410.094,97.0269 409.427,96.0269 409.5,94.5 Z"/></g>
<g><path style="opacity:0.384" fill="#909090" d="M 414.5,104.5 C 416.04,106.838 416.706,109.505 416.5,112.5C 414.96,110.162 414.294,107.495 414.5,104.5 Z"/></g>
<g><path style="opacity:0.361" fill="#767676" d="M 113.5,111.5 C 112.738,113.262 111.404,114.262 109.5,114.5C 110.262,112.738 111.596,111.738 113.5,111.5 Z"/></g>
<g><path style="opacity:0.663" fill="#767676" d="M 234.5,117.5 C 236.404,117.738 237.738,118.738 238.5,120.5C 236.596,120.262 235.262,119.262 234.5,117.5 Z"/></g>
<g><path style="opacity:0.071" fill="#b8b8b8" d="M 234.5,117.5 C 233.833,118.167 233.167,118.833 232.5,119.5C 232.281,118.325 232.614,117.325 233.5,116.5C 234.107,116.624 234.44,116.957 234.5,117.5 Z"/></g>
<g><path style="opacity:0.231" fill="#9f9f9f" d="M 232.5,119.5 C 232.598,121.553 231.931,123.22 230.5,124.5C 230.402,122.447 231.069,120.78 232.5,119.5 Z"/></g>
<g><path style="opacity:0.537" fill="#6c6c6c" d="M 242.5,123.5 C 244.404,123.738 245.738,124.738 246.5,126.5C 244.596,126.262 243.262,125.262 242.5,123.5 Z"/></g>
<g><path style="opacity:0.192" fill="#a2a2a2" d="M 230.5,124.5 C 230.598,126.553 229.931,128.22 228.5,129.5C 228.402,127.447 229.069,125.78 230.5,124.5 Z"/></g>
<g><path style="opacity:0.275" fill="#909090" d="M 246.5,126.5 C 248.027,126.427 249.027,127.094 249.5,128.5C 247.973,128.573 246.973,127.906 246.5,126.5 Z"/></g>
<g><path style="opacity:0.192" fill="#b6b6b6" d="M 357.5,128.5 C 356.341,130.25 354.674,131.25 352.5,131.5C 353.659,129.75 355.326,128.75 357.5,128.5 Z"/></g>
<g><path style="opacity:0.008" fill="#d0d0d0" d="M 362.5,128.5 C 363.906,128.973 364.573,129.973 364.5,131.5C 363.094,131.027 362.427,130.027 362.5,128.5 Z"/></g>
<g><path style="opacity:0.204" fill="#a4a4a4" d="M 251.5,129.5 C 253.027,129.427 254.027,130.094 254.5,131.5C 252.973,131.573 251.973,130.906 251.5,129.5 Z"/></g>
<g><path style="opacity:0.216" fill="#bababa" d="M 350.5,132.5 C 349.22,133.931 347.553,134.598 345.5,134.5C 346.78,133.069 348.447,132.402 350.5,132.5 Z"/></g>
<g><path style="opacity:0.667" fill="#9c9c9c" d="M 263.5,135.5 C 269.433,136.592 275.1,138.259 280.5,140.5C 274.656,140.28 268.989,138.613 263.5,135.5 Z"/></g>
<g><path style="opacity:0.631" fill="#616161" d="M 97.5,133.5 C 97.5905,136.152 96.9238,138.485 95.5,140.5C 95.4095,137.848 96.0762,135.515 97.5,133.5 Z"/></g>
<g><path style="opacity:0.2" fill="#c4c4c4" d="M 343.5,135.5 C 339.605,138.134 335.272,139.801 330.5,140.5C 334.534,138.263 338.868,136.596 343.5,135.5 Z"/></g>
<g><path style="opacity:0.141" fill="#b6b6b6" d="M 224.5,137.5 C 224.573,139.027 223.906,140.027 222.5,140.5C 222.427,138.973 223.094,137.973 224.5,137.5 Z"/></g>
<g><path style="opacity:0.286" fill="#acacac" d="M 367.5,136.5 C 370.221,140.675 371.554,145.341 371.5,150.5C 369.877,146.022 368.544,141.355 367.5,136.5 Z"/></g>
<g><path style="opacity:0.012" fill="#d4d4d4" d="M 330.5,140.5 C 328.485,141.924 326.152,142.59 323.5,142.5C 325.515,141.076 327.848,140.41 330.5,140.5 Z"/></g>
<g><path style="opacity:0.035" fill="#c6c6c6" d="M 218.5,146.5 C 218.573,148.027 217.906,149.027 216.5,149.5C 216.427,147.973 217.094,146.973 218.5,146.5 Z"/></g>
<g><path style="opacity:0.251" fill="#b2b2b2" d="M 413.5,144.5 C 412.624,148.582 410.957,152.249 408.5,155.5C 409.376,151.418 411.043,147.751 413.5,144.5 Z"/></g>
<g><path style="opacity:0.008" fill="#d5d5d5" d="M 214.5,151.5 C 214.167,153.833 212.833,155.167 210.5,155.5C 211.5,153.833 212.833,152.5 214.5,151.5 Z"/></g>
<g><path style="opacity:0.004" fill="#dedede" d="M 208.5,157.5 C 208.027,158.906 207.027,159.573 205.5,159.5C 205.973,158.094 206.973,157.427 208.5,157.5 Z"/></g>
<g><path style="opacity:0.161" fill="#c0c0c0" d="M 203.5,160.5 C 201.421,162.873 198.754,164.206 195.5,164.5C 197.849,162.659 200.515,161.326 203.5,160.5 Z"/></g>
<g><path style="opacity:0.035" fill="#c6c6c6" d="M 403.5,163.5 C 403.573,165.027 402.906,166.027 401.5,166.5C 401.427,164.973 402.094,163.973 403.5,163.5 Z"/></g>
<g><path style="opacity:0.329" fill="#949494" d="M 93.5,150.5 C 93.624,156.069 92.9573,161.402 91.5,166.5C 91.527,160.949 92.1937,155.616 93.5,150.5 Z"/></g>
<g><path style="opacity:0.004" fill="#b7b7b7" d="M 192.5,165.5 C 188.404,167.023 184.071,168.023 179.5,168.5C 179.611,167.883 179.944,167.383 180.5,167C 184.466,166.172 188.466,165.672 192.5,165.5 Z"/></g>
<g><path style="opacity:0.008" fill="#e3e3e3" d="M 400.5,167.5 C 400.5,168.833 399.833,169.5 398.5,169.5C 398.833,168.5 399.5,167.833 400.5,167.5 Z"/></g>
<g><path style="opacity:0.651" fill="#898989" d="M 266.5,178.5 C 261.5,178.5 256.5,178.5 251.5,178.5C 256.472,176.09 261.472,176.09 266.5,178.5 Z"/></g>
<g><path style="opacity:0.998" fill="#080808" d="M 251.5,178.5 C 256.5,178.5 261.5,178.5 266.5,178.5C 268.868,179.872 270.535,181.872 271.5,184.5C 271.392,185.442 271.059,186.275 270.5,187C 268.866,187.494 267.199,187.66 265.5,187.5C 265.167,187.5 264.833,187.5 264.5,187.5C 263.054,186.06 261.221,185.393 259,185.5C 256.992,185.307 255.492,185.974 254.5,187.5C 251.796,188.714 249.129,188.714 246.5,187.5C 246.34,185.801 246.506,184.134 247,182.5C 248.667,181.267 250.167,179.933 251.5,178.5 Z"/></g>
<g><path style="opacity:0.075" fill="#b9b9b9" d="M 266.5,178.5 C 270.226,179.056 272.559,181.222 273.5,185C 271.531,189.19 268.865,190.023 265.5,187.5C 267.199,187.66 268.866,187.494 270.5,187C 271.059,186.275 271.392,185.442 271.5,184.5C 270.535,181.872 268.868,179.872 266.5,178.5 Z"/></g>
<g><path style="opacity:0.353" fill="#c1c1c1" d="M 366.5,182.5 C 360.289,180.246 353.955,179.913 347.5,181.5C 350.562,179.619 353.729,178.619 357,178.5C 359.069,179.264 361.236,179.764 363.5,180C 364.942,180.377 365.942,181.21 366.5,182.5 Z"/></g>
<g><path style="opacity:0.998" fill="#080808" d="M 366.5,182.5 C 366.702,184.95 366.369,187.283 365.5,189.5C 362.703,188.759 359.87,188.093 357,187.5C 354.889,187.701 353.055,188.367 351.5,189.5C 345.216,189.496 343.882,186.829 347.5,181.5C 353.955,179.913 360.289,180.246 366.5,182.5 Z"/></g>
<g><path style="opacity:0.361" fill="#aaaaaa" d="M 251.5,178.5 C 250.167,179.933 248.667,181.267 247,182.5C 246.506,184.134 246.34,185.801 246.5,187.5C 244.058,185.861 243.891,183.861 246,181.5C 247.488,179.84 249.321,178.84 251.5,178.5 Z"/></g>
<g><path style="opacity:0.192" fill="#c9c9c9" d="M 264.5,187.5 C 261.523,186.337 258.189,186.337 254.5,187.5C 255.492,185.974 256.992,185.307 259,185.5C 261.221,185.393 263.054,186.06 264.5,187.5 Z"/></g>
<g><path style="opacity:0.886" fill="#7d7d7d" d="M 366.5,182.5 C 367.88,182.962 368.547,183.962 368.5,185.5C 368.439,187.653 367.439,188.986 365.5,189.5C 366.369,187.283 366.702,184.95 366.5,182.5 Z"/></g>
<g><path style="opacity:0.018" fill="#dbdbdb" d="M 246.5,187.5 C 249.129,188.714 251.796,188.714 254.5,187.5C 253.508,189.026 252.008,189.693 250,189.5C 248.319,189.392 247.152,188.725 246.5,187.5 Z"/></g>
<g><path style="opacity:0.678" fill="#969696" d="M 365.5,189.5 C 361.016,188.924 356.349,188.924 351.5,189.5C 353.055,188.367 354.889,187.701 357,187.5C 359.87,188.093 362.703,188.759 365.5,189.5 Z"/></g>
<g><path style="opacity:0.608" fill="#9b9b9b" d="M 347.5,181.5 C 343.882,186.829 345.216,189.496 351.5,189.5C 347.593,192.062 344.927,190.895 343.5,186C 343.822,183.479 345.156,181.979 347.5,181.5 Z"/></g>
<g><path style="opacity:0.2" fill="#c0c0c0" d="M 373.5,159.5 C 375.845,167.188 377.012,175.188 377,183.5C 377.821,190.346 377.654,197.013 376.5,203.5C 376.316,188.772 375.316,174.105 373.5,159.5 Z"/></g>
<g><path style="opacity:0.448" fill="#969696" d="M 388.5,176.5 C 388.217,177.289 387.717,177.956 387,178.5C 386.199,186.912 386.366,195.245 387.5,203.5C 387.5,203.833 387.5,204.167 387.5,204.5C 386.883,204.389 386.383,204.056 386,203.5C 385.333,194.833 385.333,186.167 386,177.5C 386.671,176.748 387.504,176.414 388.5,176.5 Z"/></g>
<g><path style="opacity:0.187" fill="#d1d1d1" d="M 387.5,204.5 C 387.5,204.167 387.5,203.833 387.5,203.5C 398.505,203.333 409.505,203.5 420.5,204C 421.056,204.383 421.389,204.883 421.5,205.5C 410.217,204.543 398.884,204.21 387.5,204.5 Z"/></g>
<g><path style="opacity:0.187" fill="#c6c6c6" d="M 376.5,203.5 C 331.691,205.787 286.691,206.787 241.5,206.5C 286.334,205.295 331.334,204.295 376.5,203.5 Z"/></g>
<g><path style="opacity:0.275" fill="#a9a9a9" d="M 93.5,203.5 C 96.1374,208.079 97.8041,213.079 98.5,218.5C 96.0806,213.853 94.4139,208.853 93.5,203.5 Z"/></g>
<g><path style="opacity:0.235" fill="#b3b3b3" d="M 179.5,168.5 C 180.465,179.876 179.631,191.21 177,202.5C 175.399,209.502 172.566,215.836 168.5,221.5C 176.151,204.571 179.818,186.904 179.5,168.5 Z"/></g>
<g><path style="opacity:0.186" fill="#d2d2d2" d="M 325.5,215.5 C 325.5,217.167 325.5,218.833 325.5,220.5C 324.549,219.081 324.216,217.415 324.5,215.5C 319.489,215.334 314.489,215.501 309.5,216C 308.868,219.27 308.201,222.437 307.5,225.5C 307.211,221.894 307.544,218.394 308.5,215C 314.349,214.182 320.015,214.348 325.5,215.5 Z"/></g>
<g><path style="opacity:0.067" fill="#d0d0d0" d="M 407.5,213.5 C 383.324,214.234 358.991,215.068 334.5,216C 335.739,226.451 336.739,236.951 337.5,247.5C 337.274,250.224 336.94,252.891 336.5,255.5C 335.832,243.127 334.832,230.627 333.5,218C 333.559,216.564 333.892,215.231 334.5,214C 358.831,213.5 383.164,213.333 407.5,213.5 Z"/></g>
<g><path style="opacity:0.076" fill="#d5d5d5" d="M 292.5,215.5 C 260.269,216.681 227.936,217.681 195.5,218.5C 195.5,221.167 195.5,223.833 195.5,226.5C 194.215,223.411 193.549,220.078 193.5,216.5C 226.492,215.638 259.492,215.305 292.5,215.5 Z"/></g>
<g><path style="opacity:0.175" fill="#bcbcbc" d="M 292.5,215.5 C 294.607,214.532 296.941,214.198 299.5,214.5C 299.347,223.21 298.68,231.877 297.5,240.5C 297.167,240.5 296.833,240.5 296.5,240.5C 297.101,232.161 297.767,223.828 298.5,215.5C 296.5,215.5 294.5,215.5 292.5,215.5 Z"/></g>
<g><path style="opacity:0.508" fill="#9e9e9e" d="M 186.5,209.5 C 185.593,215.106 185.26,220.773 185.5,226.5C 184.349,221.35 184.183,216.016 185,210.5C 185.383,209.944 185.883,209.611 186.5,209.5 Z"/></g>
<g><path style="opacity:0.106" fill="#dfdfdf" d="M 384.5,220.5 C 381.868,218.937 379.535,219.27 377.5,221.5C 377.414,220.504 377.748,219.671 378.5,219C 380.989,218.059 382.989,218.559 384.5,220.5 Z"/></g>
<g><path style="opacity:0.373" fill="#ababab" d="M 421.5,205.5 C 422.117,205.611 422.617,205.944 423,206.5C 423.826,218.008 423.659,229.341 422.5,240.5C 422.791,228.783 422.458,217.116 421.5,205.5 Z"/></g>
<g><path style="opacity:0.999" fill="#1f1f1f" d="M 384.5,220.5 C 385.222,220.918 385.722,221.584 386,222.5C 386.904,238.54 386.57,254.54 385,270.5C 384.623,271.942 383.79,272.942 382.5,273.5C 380.533,273.739 378.699,273.406 377,272.5C 376.994,255.505 377.161,238.505 377.5,221.5C 379.535,219.27 381.868,218.937 384.5,220.5 Z"/></g>
<g><path style="opacity:0.008" fill="#dddddd" d="M 168.5,221.5 C 168.573,223.027 167.906,224.027 166.5,224.5C 166.427,222.973 167.094,221.973 168.5,221.5 Z"/></g>
<g><path style="opacity:0.596" fill="#9a9a9a" d="M 363.5,229.5 C 360.833,229.5 358.167,229.5 355.5,229.5C 358.167,226.833 360.833,226.833 363.5,229.5 Z"/></g>
<g><path style="opacity:0.437" fill="#979797" d="M 165.5,225.5 C 164.687,227.887 164.354,230.22 164.5,232.5C 163.853,231.726 163.52,230.726 163.5,229.5C 163.34,227.645 164.007,226.312 165.5,225.5 Z"/></g>
<g><path style="opacity:0.999" fill="#070707" d="M 355.5,229.5 C 358.167,229.5 360.833,229.5 363.5,229.5C 363.833,230.5 364.5,231.167 365.5,231.5C 365.833,232.5 366.5,233.167 367.5,233.5C 368.229,238.13 368.563,242.797 368.5,247.5C 368.672,248.492 368.338,249.158 367.5,249.5C 364.18,253.655 359.846,255.322 354.5,254.5C 352.576,252.305 350.909,249.972 349.5,247.5C 349.467,243.131 349.8,238.798 350.5,234.5C 352.5,233.167 354.167,231.5 355.5,229.5 Z"/></g>
<g><path style="opacity:0.024" fill="#d4d4d4" d="M 363.5,229.5 C 364.833,229.5 365.5,230.167 365.5,231.5C 364.5,231.167 363.833,230.5 363.5,229.5 Z"/></g>
<g><path style="opacity:0.124" fill="#c4c4c4" d="M 377.5,221.5 C 377.161,238.505 376.994,255.505 377,272.5C 378.699,273.406 380.533,273.739 382.5,273.5C 381.048,274.302 379.382,274.802 377.5,275C 388.319,276.651 397.653,273.818 405.5,266.5C 403.424,271.224 399.758,274.058 394.5,275C 387.221,276.247 379.888,276.747 372.5,276.5C 372.167,276.5 371.833,276.5 371.5,276.5C 373.042,275.837 374.709,275.17 376.5,274.5C 375.078,272.213 374.411,269.713 374.5,267C 375.711,251.69 376.711,236.524 377.5,221.5 Z"/></g>
<g><path style="opacity:0.702" fill="#8b8b8b" d="M 264.5,231.5 C 259.899,231.055 255.565,231.722 251.5,233.5C 255.3,229.206 259.633,228.539 264.5,231.5 Z"/></g>
<g><path style="opacity:0.008" fill="#cecece" d="M 412.5,213.5 C 413.82,216.428 414.486,219.761 414.5,223.5C 414.373,231.032 413.707,238.366 412.5,245.5C 413.259,234.761 413.259,224.094 412.5,213.5 Z"/></g>
<g><path style="opacity:0.999" fill="#060606" d="M 264.5,231.5 C 265.167,231.5 265.5,231.833 265.5,232.5C 266.167,233.833 267.167,234.833 268.5,235.5C 268.259,237.898 268.926,239.898 270.5,241.5C 270.731,245.993 270.064,250.326 268.5,254.5C 266.5,255.833 264.833,257.5 263.5,259.5C 263.167,259.5 262.833,259.5 262.5,259.5C 259.098,259.658 255.764,259.324 252.5,258.5C 251.833,257.167 250.833,256.167 249.5,255.5C 248.326,254.486 247.66,253.153 247.5,251.5C 247.437,246.797 247.771,242.13 248.5,237.5C 250.262,236.738 251.262,235.404 251.5,233.5C 255.565,231.722 259.899,231.055 264.5,231.5 Z"/></g>
<g><path style="opacity:0.443" fill="#b4b4b4" d="M 355.5,229.5 C 354.167,231.5 352.5,233.167 350.5,234.5C 351.167,231.833 352.833,230.167 355.5,229.5 Z"/></g>
<g><path style="opacity:0.012" fill="#d7d7d7" d="M 365.5,231.5 C 366.833,231.5 367.5,232.167 367.5,233.5C 366.5,233.167 365.833,232.5 365.5,231.5 Z"/></g>
<g><path style="opacity:0.004" fill="#d7d7d7" d="M 265.5,232.5 C 267.5,232.5 268.5,233.5 268.5,235.5C 267.167,234.833 266.167,233.833 265.5,232.5 Z"/></g>
<g><path style="opacity:0.212" fill="#9f9f9f" d="M 325.5,215.5 C 326.657,223.656 326.823,231.99 326,240.5C 324.961,239.756 324.461,238.756 324.5,237.5C 325.489,232.025 325.822,226.358 325.5,220.5C 325.5,218.833 325.5,217.167 325.5,215.5 Z"/></g>
<g><path style="opacity:0.6" fill="#9d9d9d" d="M 251.5,233.5 C 251.262,235.404 250.262,236.738 248.5,237.5C 248.738,235.596 249.738,234.262 251.5,233.5 Z"/></g>
<g><path style="opacity:0.016" fill="#cecece" d="M 129.5,234.5 C 124.633,233.209 119.966,233.876 115.5,236.5C 118.599,232.76 122.599,231.593 127.5,233C 128.416,233.278 129.082,233.778 129.5,234.5 Z"/></g>
<g><path style="opacity:0.624" fill="#a9a9a9" d="M 135.5,236.5 C 138.833,237.833 141.167,240.167 142.5,243.5C 139.833,241.5 137.5,239.167 135.5,236.5 Z"/></g>
<g><path style="opacity:0.69" fill="#a4a4a4" d="M 196.5,232.5 C 198.87,238.616 200.87,244.949 202.5,251.5C 199.127,245.697 197.127,239.364 196.5,232.5 Z"/></g>
<g><path style="opacity:0.027" fill="#c1c1c1" d="M 307.5,228.5 C 307.55,234.389 306.884,240.056 305.5,245.5C 305.45,239.611 306.116,233.944 307.5,228.5 Z"/></g>
<g><path style="opacity:0.016" fill="#dcdcdc" d="M 115.5,236.5 C 115.262,238.404 114.262,239.738 112.5,240.5C 112.738,238.596 113.738,237.262 115.5,236.5 Z"/></g>
<g><path style="opacity:0.125" fill="#bababa" d="M 185.5,226.5 C 188.635,236.69 191.635,247.023 194.5,257.5C 189.709,247.783 186.709,237.45 185.5,226.5 Z"/></g>
<g><path style="opacity:0.137" fill="#cecece" d="M 100.5,223.5 C 102.91,226.331 104.243,229.664 104.5,233.5C 104.922,236.308 103.922,238.308 101.5,239.5C 102.615,237.693 103.281,235.693 103.5,233.5C 102.492,230.155 101.492,226.822 100.5,223.5 Z"/></g>
<g><path style="opacity:0.925" fill="#5c5c5c" d="M 268.5,235.5 C 269.674,236.514 270.34,237.847 270.5,239.5C 270.5,240.167 270.5,240.833 270.5,241.5C 268.926,239.898 268.259,237.898 268.5,235.5 Z"/></g>
<g><path style="opacity:0.333" fill="#a3a3a3" d="M 367.5,233.5 C 369.047,235.807 369.713,238.473 369.5,241.5C 369.495,243.696 369.162,245.696 368.5,247.5C 368.563,242.797 368.229,238.13 367.5,233.5 Z"/></g>
<g><path style="opacity:0.812" fill="#787878" d="M 133.5,240.5 C 129.167,240.5 124.833,240.5 120.5,240.5C 124.852,237.939 129.185,237.939 133.5,240.5 Z"/></g>
<g><path style="opacity:0.998" fill="#101010" d="M 120.5,240.5 C 124.833,240.5 129.167,240.5 133.5,240.5C 134.492,240.328 135.158,240.662 135.5,241.5C 135.973,242.906 136.973,243.573 138.5,243.5C 138.427,245.027 139.094,246.027 140.5,246.5C 141.808,248.638 141.475,250.638 139.5,252.5C 139.167,252.5 138.833,252.5 138.5,252.5C 137.5,252.5 136.5,252.5 135.5,252.5C 134.833,252.5 134.5,252.167 134.5,251.5C 130.045,246.234 125.545,246.234 121,251.5C 120.333,255.833 120.333,260.167 121,264.5C 121.424,267.025 122.59,269.025 124.5,270.5C 125.338,270.842 125.672,271.508 125.5,272.5C 125.418,274.252 126.251,275.252 128,275.5C 129.03,275.164 129.53,274.497 129.5,273.5C 131.998,271.34 134.998,270.007 138.5,269.5C 138.376,268.893 138.043,268.56 137.5,268.5C 135.466,264.608 135.133,260.608 136.5,256.5C 137.209,255.596 138.209,255.263 139.5,255.5C 139.5,256.167 139.833,256.5 140.5,256.5C 140.856,258.19 141.856,259.19 143.5,259.5C 144.338,259.842 144.672,260.508 144.5,261.5C 144.738,263.404 145.738,264.738 147.5,265.5C 148.757,268.427 150.757,270.761 153.5,272.5C 154.227,274.954 155.227,277.287 156.5,279.5C 156.5,279.833 156.5,280.167 156.5,280.5C 156.416,283.327 155.75,285.994 154.5,288.5C 150.767,292.033 146.767,292.367 142.5,289.5C 142.167,288.5 141.5,287.833 140.5,287.5C 139.833,286.167 138.833,285.167 137.5,284.5C 136.406,282.164 135.073,282.164 133.5,284.5C 130.904,285.265 128.237,285.599 125.5,285.5C 124.415,283.413 122.749,282.08 120.5,281.5C 119.544,278.561 117.877,276.228 115.5,274.5C 114.662,274.158 114.328,273.492 114.5,272.5C 114.072,269.215 113.072,266.215 111.5,263.5C 111.294,258.346 111.961,253.346 113.5,248.5C 114.906,248.027 115.573,247.027 115.5,245.5C 117.5,244.167 119.167,242.5 120.5,240.5 Z"/></g>
<g><path style="opacity:0.331" fill="#afafaf" d="M 350.5,234.5 C 349.8,238.798 349.467,243.131 349.5,247.5C 348.84,246.036 348.507,244.369 348.5,242.5C 348.382,239.514 349.048,236.848 350.5,234.5 Z"/></g>
<g><path style="opacity:0.024" fill="#cccccc" d="M 135.5,241.5 C 137.179,241.285 138.179,241.952 138.5,243.5C 136.973,243.573 135.973,242.906 135.5,241.5 Z"/></g>
<g><path style="opacity:0.075" fill="#d5d5d5" d="M 112.5,240.5 C 112.573,242.027 111.906,243.027 110.5,243.5C 110.427,241.973 111.094,240.973 112.5,240.5 Z"/></g>
<g><path style="opacity:0.58" fill="#b3b3b3" d="M 165.5,239.5 C 168.276,245.499 170.276,251.833 171.5,258.5C 168.728,252.512 166.728,246.178 165.5,239.5 Z"/></g>
<g><path style="opacity:0.475" fill="#888888" d="M 248.5,237.5 C 247.771,242.13 247.437,246.797 247.5,251.5C 246.839,249.866 246.506,248.033 246.5,246C 246.36,242.85 247.027,240.017 248.5,237.5 Z"/></g>
<g><path style="opacity:0.631" fill="#999999" d="M 296.5,240.5 C 296.833,240.5 297.167,240.5 297.5,240.5C 297.59,243.152 296.924,245.485 295.5,247.5C 295.298,245.05 295.631,242.717 296.5,240.5 Z"/></g>
<g><path style="opacity:0.482" fill="#9d9d9d" d="M 120.5,240.5 C 119.167,242.5 117.5,244.167 115.5,245.5C 116.167,242.833 117.833,241.167 120.5,240.5 Z"/></g>
<g><path style="opacity:0.749" fill="#747474" d="M 138.5,243.5 C 139.906,243.973 140.573,244.973 140.5,246.5C 139.094,246.027 138.427,245.027 138.5,243.5 Z"/></g>
<g><path style="opacity:0.404" fill="#c0c0c0" d="M 270.5,239.5 C 273.429,244.935 272.762,249.935 268.5,254.5C 270.064,250.326 270.731,245.993 270.5,241.5C 270.5,240.833 270.5,240.167 270.5,239.5 Z"/></g>
<g><path style="opacity:0.012" fill="#d6d6d6" d="M 143.5,244.5 C 144.906,244.973 145.573,245.973 145.5,247.5C 143.952,247.179 143.285,246.179 143.5,244.5 Z"/></g>
<g><path style="opacity:0.373" fill="#8e8e8e" d="M 115.5,245.5 C 115.573,247.027 114.906,248.027 113.5,248.5C 113.427,246.973 114.094,245.973 115.5,245.5 Z"/></g>
<g><path style="opacity:0.404" fill="#9d9d9d" d="M 100.5,242.5 C 100.59,245.152 99.9238,247.485 98.5,249.5C 98.4095,246.848 99.0762,244.515 100.5,242.5 Z"/></g>
<g><path style="opacity:0.184" fill="#bebebe" d="M 349.5,247.5 C 350.909,249.972 352.576,252.305 354.5,254.5C 351.142,253.473 349.475,251.14 349.5,247.5 Z"/></g>
<g><path style="opacity:0.016" fill="#d7d7d7" d="M 134.5,251.5 C 132.037,250.767 129.703,249.767 127.5,248.5C 125.617,248.876 124.117,249.876 123,251.5C 120.852,258.022 121.352,264.355 124.5,270.5C 122.59,269.025 121.424,267.025 121,264.5C 120.333,260.167 120.333,255.833 121,251.5C 125.545,246.234 130.045,246.234 134.5,251.5 Z"/></g>
<g><path style="opacity:0.157" fill="#c5c5c5" d="M 319.5,246.5 C 322,249.494 324,252.827 325.5,256.5C 322.479,253.794 320.479,250.461 319.5,246.5 Z"/></g>
<g><path style="opacity:0.239" fill="#b6b6b6" d="M 422.5,243.5 C 422.508,251.807 420.508,259.474 416.5,266.5C 418.993,258.859 420.993,251.192 422.5,243.5 Z"/></g>
<g><path style="opacity:0.067" fill="#c5c5c5" d="M 145.5,247.5 C 149.99,252.154 152.657,257.821 153.5,264.5C 151.31,259.096 148.643,253.429 145.5,247.5 Z"/></g>
<g><path style="opacity:0.604" fill="#919191" d="M 113.5,248.5 C 111.961,253.346 111.294,258.346 111.5,263.5C 110.357,260.024 110.19,256.358 111,252.5C 111.608,250.934 112.442,249.6 113.5,248.5 Z"/></g>
<g><path style="opacity:0.01" fill="#f5f5f5" d="M 135.5,252.5 C 136.5,252.5 137.5,252.5 138.5,252.5C 138.833,253.833 139.167,253.833 139.5,252.5C 140.404,253.209 140.737,254.209 140.5,255.5C 140.167,255.5 139.833,255.5 139.5,255.5C 138.167,254.5 136.833,253.5 135.5,252.5 Z"/></g>
<g><path style="opacity:0.465" fill="#b6b6b6" d="M 367.5,249.5 C 366.342,252.822 364.008,254.988 360.5,256C 358.225,256.405 356.225,255.905 354.5,254.5C 359.846,255.322 364.18,253.655 367.5,249.5 Z"/></g>
<g><path style="opacity:0.757" fill="#878787" d="M 202.5,252.5 C 203.537,253.93 204.204,255.597 204.5,257.5C 202.787,256.365 202.12,254.698 202.5,252.5 Z"/></g>
<g><path style="opacity:0.004" fill="#d6d6d6" d="M 249.5,255.5 C 250.833,256.167 251.833,257.167 252.5,258.5C 250.5,258.5 249.5,257.5 249.5,255.5 Z"/></g>
<g><path style="opacity:0.043" fill="#d3d3d3" d="M 268.5,254.5 C 267.833,257.167 266.167,258.833 263.5,259.5C 264.833,257.5 266.5,255.833 268.5,254.5 Z"/></g>
<g><path style="opacity:0.106" fill="#c6c6c6" d="M 109.5,245.5 C 106.883,254.841 106.883,264.174 109.5,273.5C 108.073,271.852 107.24,269.852 107,267.5C 106.333,262.167 106.333,256.833 107,251.5C 107.24,249.148 108.073,247.148 109.5,245.5 Z"/></g>
<g><path style="opacity:0.643" fill="#979797" d="M 294.5,254.5 C 294.472,257.916 293.472,260.916 291.5,263.5C 291.928,260.215 292.928,257.215 294.5,254.5 Z"/></g>
<g><path style="opacity:0.875" fill="#6d6d6d" d="M 140.5,255.5 C 142.262,256.262 143.262,257.596 143.5,259.5C 141.856,259.19 140.856,258.19 140.5,256.5C 140.5,256.167 140.5,255.833 140.5,255.5 Z"/></g>
<g><path style="opacity:0.643" fill="#989898" d="M 410.5,255.5 C 410.88,257.698 410.213,259.365 408.5,260.5C 408.402,258.447 409.069,256.78 410.5,255.5 Z"/></g>
<g><path style="opacity:0.525" fill="#8a8a8a" d="M 252.5,258.5 C 255.764,259.324 259.098,259.658 262.5,259.5C 259.696,260.638 256.696,260.805 253.5,260C 252.944,259.617 252.611,259.117 252.5,258.5 Z"/></g>
<g><path style="opacity:0.012" fill="#e6e6e6" d="M 326.5,258.5 C 327.5,258.833 328.167,259.5 328.5,260.5C 327.167,260.5 326.5,259.833 326.5,258.5 Z"/></g>
<g><path style="opacity:0.498" fill="#919191" d="M 98.5,249.5 C 98.5,256.167 98.5,262.833 98.5,269.5C 95.9629,262.824 95.9629,256.157 98.5,249.5 Z"/></g>
<g><path style="opacity:0.384" fill="#aeaeae" d="M 337.5,257.5 C 339.587,258.585 340.92,260.251 341.5,262.5C 339.413,261.415 338.08,259.749 337.5,257.5 Z"/></g>
<g><path style="opacity:0.078" fill="#bbbbbb" d="M 305.5,246.5 C 305.315,255.899 302.649,264.565 297.5,272.5C 300.805,263.926 303.471,255.259 305.5,246.5 Z"/></g>
<g><path style="opacity:0.267" fill="#c3c3c3" d="M 144.5,261.5 C 146.262,262.262 147.262,263.596 147.5,265.5C 145.738,264.738 144.738,263.404 144.5,261.5 Z"/></g>
<g><path style="opacity:0.239" fill="#bdbdbd" d="M 194.5,257.5 C 197.392,264.284 201.059,270.617 205.5,276.5C 199.525,271.556 195.858,265.222 194.5,257.5 Z"/></g>
<g><path style="opacity:0.004" fill="#dadada" d="M 329.5,262.5 C 331.262,263.262 332.262,264.596 332.5,266.5C 330.738,265.738 329.738,264.404 329.5,262.5 Z"/></g>
<g><path style="opacity:0.627" fill="#979797" d="M 341.5,262.5 C 343.262,263.262 344.262,264.596 344.5,266.5C 342.738,265.738 341.738,264.404 341.5,262.5 Z"/></g>
<g><path style="opacity:0.18" fill="#b7b7b7" d="M 408.5,260.5 C 408.539,263.089 407.539,265.089 405.5,266.5C 405.992,264.181 406.992,262.181 408.5,260.5 Z"/></g>
<g><path style="opacity:0.192" fill="#b5b5b5" d="M 136.5,256.5 C 135.133,260.608 135.466,264.608 137.5,268.5C 137.167,268.5 136.833,268.5 136.5,268.5C 135.114,266.012 134.114,263.345 133.5,260.5C 133.561,258.347 134.561,257.014 136.5,256.5 Z"/></g>
<g><path style="opacity:0.357" fill="#adadad" d="M 207.5,263.5 C 208.906,263.973 209.573,264.973 209.5,266.5C 208.094,266.027 207.427,265.027 207.5,263.5 Z"/></g>
<g><path style="opacity:0.078" fill="#bcbcbc" d="M 111.5,263.5 C 113.072,266.215 114.072,269.215 114.5,272.5C 112.132,270.044 111.132,267.044 111.5,263.5 Z"/></g>
<g><path style="opacity:0.69" fill="#989898" d="M 147.5,265.5 C 150.243,267.239 152.243,269.573 153.5,272.5C 150.757,270.761 148.757,268.427 147.5,265.5 Z"/></g>
<g><path style="opacity:0.788" fill="#979797" d="M 209.5,266.5 C 212.903,268.9 215.57,271.9 217.5,275.5C 214.097,273.1 211.43,270.1 209.5,266.5 Z"/></g>
<g><path style="opacity:0.004" fill="#ececec" d="M 332.5,266.5 C 333.5,266.833 334.167,267.5 334.5,268.5C 333.167,268.5 332.5,267.833 332.5,266.5 Z"/></g>
<g><path style="opacity:0.184" fill="#b1b1b1" d="M 291.5,263.5 C 291.47,266.852 290.137,269.518 287.5,271.5C 288.326,268.515 289.659,265.849 291.5,263.5 Z"/></g>
<g><path style="opacity:0.243" fill="#bababa" d="M 344.5,266.5 C 345.906,266.973 346.573,267.973 346.5,269.5C 345.094,269.027 344.427,268.027 344.5,266.5 Z"/></g>
<g><path style="opacity:0.608" fill="#a0a0a0" d="M 136.5,268.5 C 136.833,269.833 137.167,269.833 137.5,268.5C 138.043,268.56 138.376,268.893 138.5,269.5C 134.998,270.007 131.998,271.34 129.5,273.5C 130.351,269.929 132.684,268.263 136.5,268.5 Z"/></g>
<g><path style="opacity:0.016" fill="#cdcdcd" d="M 415.5,268.5 C 415.573,270.027 414.906,271.027 413.5,271.5C 413.427,269.973 414.094,268.973 415.5,268.5 Z"/></g>
<g><path style="opacity:0.039" fill="#bdbdbd" d="M 172.5,263.5 C 173.343,266.326 174.009,269.326 174.5,272.5C 174.199,274.422 173.533,276.088 172.5,277.5C 172.5,272.833 172.5,268.167 172.5,263.5 Z"/></g>
<g><path style="opacity:0.427" fill="#a7a7a7" d="M 346.5,269.5 C 347.612,271.599 348.279,273.933 348.5,276.5C 347.883,276.389 347.383,276.056 347,275.5C 346.505,273.527 346.338,271.527 346.5,269.5 Z"/></g>
<g><path style="opacity:0.675" fill="#929292" d="M 125.5,272.5 C 126.705,274.138 128.038,274.471 129.5,273.5C 129.53,274.497 129.03,275.164 128,275.5C 126.251,275.252 125.418,274.252 125.5,272.5 Z"/></g>
<g><path style="opacity:0.098" fill="#bbbbbb" d="M 413.5,271.5 C 412.92,273.749 411.587,275.415 409.5,276.5C 410.08,274.251 411.413,272.585 413.5,271.5 Z"/></g>
<g><path style="opacity:0.353" fill="#aeaeae" d="M 287.5,271.5 C 286.167,274.833 283.833,277.167 280.5,278.5C 282.5,275.833 284.833,273.5 287.5,271.5 Z"/></g>
<g><path style="opacity:0.106" fill="#d1d1d1" d="M 297.5,273.5 C 297.204,276.31 295.538,278.644 292.5,280.5C 293.786,277.883 295.453,275.55 297.5,273.5 Z"/></g>
<g><path style="opacity:0.016" fill="#dedede" d="M 155.5,269.5 C 157.4,272.518 158.733,275.851 159.5,279.5C 158.5,279.5 157.5,279.5 156.5,279.5C 155.227,277.287 154.227,274.954 153.5,272.5C 154.167,272.833 154.833,273.167 155.5,273.5C 155.5,272.167 155.5,270.833 155.5,269.5 Z"/></g>
<g><path style="opacity:0.094" fill="#b6b6b6" d="M 336.5,271.5 C 337.117,271.611 337.617,271.944 338,272.5C 338.667,276.167 338.667,279.833 338,283.5C 337.617,284.056 337.117,284.389 336.5,284.5C 337.833,280.167 337.833,275.833 336.5,271.5 Z"/></g>
<g><path style="opacity:0.583" fill="#787878" d="M 348.5,276.5 C 356.128,277.451 363.795,277.451 371.5,276.5C 371.833,276.5 372.167,276.5 372.5,276.5C 365.051,278.222 357.385,278.722 349.5,278C 348.944,277.617 348.611,277.117 348.5,276.5 Z"/></g>
<g><path style="opacity:0.008" fill="#aaaaaa" d="M 115.5,274.5 C 117.877,276.228 119.544,278.561 120.5,281.5C 118.11,279.733 116.443,277.4 115.5,274.5 Z"/></g>
<g><path style="opacity:0.004" fill="#bfbfbf" d="M 205.5,276.5 C 207.144,276.81 208.144,277.81 208.5,279.5C 206.856,279.19 205.856,278.19 205.5,276.5 Z"/></g>
<g><path style="opacity:0.004" fill="#e1e1e1" d="M 219.5,277.5 C 221.674,277.75 223.341,278.75 224.5,280.5C 222.326,280.25 220.659,279.25 219.5,277.5 Z"/></g>
<g><path style="opacity:0.004" fill="#d3d3d3" d="M 172.5,278.5 C 172.167,280.833 170.833,282.167 168.5,282.5C 169.5,280.833 170.833,279.5 172.5,278.5 Z"/></g>
<g><path style="opacity:0.831" fill="#707070" d="M 280.5,278.5 C 278.967,280.245 276.967,281.245 274.5,281.5C 274.5,281.167 274.5,280.833 274.5,280.5C 276.302,279.542 278.302,278.875 280.5,278.5 Z"/></g>
<g><path style="opacity:0.024" fill="#dadada" d="M 407.5,278.5 C 406.738,280.262 405.404,281.262 403.5,281.5C 404.262,279.738 405.596,278.738 407.5,278.5 Z"/></g>
<g><path style="opacity:0.204" fill="#a6a6a6" d="M 100.5,275.5 C 103.341,279.849 105.674,284.516 107.5,289.5C 104.126,285.419 101.793,280.753 100.5,275.5 Z"/></g>
<g><path style="opacity:0.004" fill="#e3e3e3" d="M 159.5,279.5 C 160.833,280.167 161.833,281.167 162.5,282.5C 160.5,282.5 159.5,281.5 159.5,279.5 Z"/></g>
<g><path style="opacity:0.004" fill="#cdcdcd" d="M 208.5,279.5 C 210.5,280.833 212.167,282.5 213.5,284.5C 210.833,283.833 209.167,282.167 208.5,279.5 Z"/></g>
<g><path style="opacity:0.153" fill="#c8c8c8" d="M 403.5,281.5 C 402.22,282.931 400.553,283.598 398.5,283.5C 399.78,282.069 401.447,281.402 403.5,281.5 Z"/></g>
<g><path style="opacity:0.18" fill="#c6c6c6" d="M 113.5,281.5 C 114.906,281.973 115.573,282.973 115.5,284.5C 114.094,284.027 113.427,283.027 113.5,281.5 Z"/></g>
<g><path style="opacity:0.239" fill="#a9a9a9" d="M 224.5,280.5 C 231.341,282.473 238.341,283.473 245.5,283.5C 255.228,283.012 264.895,282.012 274.5,280.5C 274.5,280.833 274.5,281.167 274.5,281.5C 260.632,284.252 246.632,285.085 232.5,284C 229.401,283.613 226.734,282.446 224.5,280.5 Z"/></g>
<g><path style="opacity:0.141" fill="#bdbdbd" d="M 120.5,281.5 C 122.749,282.08 124.415,283.413 125.5,285.5C 123.251,284.92 121.585,283.587 120.5,281.5 Z"/></g>
<g><path style="opacity:0.027" fill="#d1d1d1" d="M 289.5,283.5 C 289.027,284.906 288.027,285.573 286.5,285.5C 286.973,284.094 287.973,283.427 289.5,283.5 Z"/></g>
<g><path style="opacity:0.051" fill="#c1c1c1" d="M 133.5,284.5 C 132.508,286.026 131.008,286.693 129,286.5C 127.615,286.486 126.449,286.152 125.5,285.5C 128.237,285.599 130.904,285.265 133.5,284.5 Z"/></g>
<g><path style="opacity:0.02" fill="#e4e4e4" d="M 137.5,284.5 C 138.833,285.167 139.833,286.167 140.5,287.5C 138.5,287.5 137.5,286.5 137.5,284.5 Z"/></g>
<g><path style="opacity:0.697" fill="#5d5d5d" d="M 345.5,286.5 C 354.657,285.342 363.991,285.176 373.5,286C 374.811,288.274 374.811,290.44 373.5,292.5C 373.66,290.801 373.494,289.134 373,287.5C 371.612,287.786 370.112,287.452 368.5,286.5C 360.833,286.5 353.167,286.5 345.5,286.5 Z"/></g>
<g><path style="opacity:0.118" fill="#e8e8e8" d="M 345.5,286.5 C 353.167,286.5 360.833,286.5 368.5,286.5C 361.345,287.329 354.011,287.829 346.5,288C 345.922,289.417 344.922,290.25 343.5,290.5C 344.167,289.167 344.833,287.833 345.5,286.5 Z"/></g>
<g><path style="opacity:0.067" fill="#d4d4d4" d="M 156.5,280.5 C 158.007,283.618 157.34,286.285 154.5,288.5C 155.75,285.994 156.416,283.327 156.5,280.5 Z"/></g>
<g><path style="opacity:0.129" fill="#b3b3b3" d="M 213.5,284.5 C 215.749,285.08 217.415,286.413 218.5,288.5C 216.251,287.92 214.585,286.587 213.5,284.5 Z"/></g>
<g><path style="opacity:0.004" fill="#dedede" d="M 140.5,287.5 C 141.5,287.833 142.167,288.5 142.5,289.5C 141.167,289.5 140.5,288.833 140.5,287.5 Z"/></g>
<g><path style="opacity:0.118" fill="#c6c6c6" d="M 286.5,285.5 C 284.588,288.149 281.921,289.482 278.5,289.5C 280.849,287.659 283.515,286.326 286.5,285.5 Z"/></g>
<g><path style="opacity:0.275" fill="#c8c8c8" d="M 335.5,285.5 C 332.96,288.607 329.627,290.44 325.5,291C 323.845,292.444 323.178,294.278 323.5,296.5C 322.058,294.183 322.392,292.016 324.5,290C 328.405,288.948 332.071,287.448 335.5,285.5 Z"/></g>
<g><path style="opacity:0.227" fill="#acacac" d="M 117.5,288.5 C 119.587,289.585 120.92,291.251 121.5,293.5C 119.413,292.415 118.08,290.749 117.5,288.5 Z"/></g>
<g><path style="opacity:0.426" fill="#8e8e8e" d="M 221.5,289.5 C 224.647,289.737 227.647,290.57 230.5,292C 238.159,292.5 245.826,292.666 253.5,292.5C 253.5,292.833 253.5,293.167 253.5,293.5C 245.493,293.666 237.493,293.5 229.5,293C 226.524,292.295 223.858,291.129 221.5,289.5 Z"/></g>
<g><path style="opacity:0.216" fill="#b9b9b9" d="M 278.5,289.5 C 270.501,292.121 262.168,293.454 253.5,293.5C 253.5,293.167 253.5,292.833 253.5,292.5C 261.873,291.827 270.206,290.827 278.5,289.5 Z"/></g>
<g><path style="opacity:0.016" fill="#d9d9d9" d="M 342.5,291.5 C 342.167,293.833 340.833,295.167 338.5,295.5C 339.5,293.833 340.833,292.5 342.5,291.5 Z"/></g>
<g><path style="opacity:0.004" fill="#bababa" d="M 107.5,290.5 C 109.877,292.228 111.544,294.561 112.5,297.5C 110.11,295.733 108.443,293.4 107.5,290.5 Z"/></g>
<g><path style="opacity:0.635" fill="#959595" d="M 123.5,295.5 C 124.833,296.167 125.833,297.167 126.5,298.5C 124.5,298.5 123.5,297.5 123.5,295.5 Z"/></g>
<g><path style="opacity:0.024" fill="#e2e2e2" d="M 338.5,295.5 C 337.713,297.104 336.38,297.771 334.5,297.5C 335.514,296.326 336.847,295.66 338.5,295.5 Z"/></g>
<g><path style="opacity:0.008" fill="#dbdbdb" d="M 126.5,298.5 C 128.027,298.427 129.027,299.094 129.5,300.5C 127.973,300.573 126.973,299.906 126.5,298.5 Z"/></g>
<g><path style="opacity:0.137" fill="#bebebe" d="M 323.5,296.5 C 325.701,297.566 328.035,298.233 330.5,298.5C 329.399,299.598 328.066,299.765 326.5,299C 324.881,298.764 323.881,297.931 323.5,296.5 Z"/></g>
<g><path style="opacity:0.004" fill="#cbcbcb" d="M 113.5,298.5 C 116.167,300.5 118.5,302.833 120.5,305.5C 117.167,304.167 114.833,301.833 113.5,298.5 Z"/></g>
<g><path style="opacity:0.006" fill="#f1f1f1" d="M 131.5,301.5 C 133.027,301.427 134.027,302.094 134.5,303.5C 132.973,303.573 131.973,302.906 131.5,301.5 Z"/></g>
<g><path style="opacity:0.514" fill="#b1b1b1" d="M 163.5,306.5 C 160.167,306.5 156.833,306.5 153.5,306.5C 156.868,303.954 160.201,303.954 163.5,306.5 Z"/></g>
<g><path style="opacity:0.124" fill="#c8c8c8" d="M 134.5,303.5 C 140.571,305.993 146.905,306.993 153.5,306.5C 149.689,307.645 145.689,307.812 141.5,307C 138.719,306.478 136.385,305.311 134.5,303.5 Z"/></g>
<g><path style="opacity:0.616" fill="#9c9c9c" d="M 163.5,306.5 C 165.262,307.262 166.262,308.596 166.5,310.5C 164.738,309.738 163.738,308.404 163.5,306.5 Z"/></g>
<g><path style="opacity:0.141" fill="#b2b2b2" d="M 120.5,305.5 C 122.749,306.08 124.415,307.413 125.5,309.5C 123.251,308.92 121.585,307.587 120.5,305.5 Z"/></g>
<g><path style="opacity:0.125" fill="#cacaca" d="M 127.5,310.5 C 129.027,310.427 130.027,311.094 130.5,312.5C 128.973,312.573 127.973,311.906 127.5,310.5 Z"/></g>
<g><path style="opacity:0.137" fill="#c4c4c4" d="M 131.5,312.5 C 133.027,312.427 134.027,313.094 134.5,314.5C 132.973,314.573 131.973,313.906 131.5,312.5 Z"/></g>
<g><path style="opacity:0.902" fill="#6d6d6d" d="M 166.5,310.5 C 167.674,311.514 168.34,312.847 168.5,314.5C 166.824,313.817 166.157,312.483 166.5,310.5 Z"/></g>
<g><path style="opacity:0.776" fill="#808080" d="M 136.5,315.5 C 138.048,315.821 138.715,316.821 138.5,318.5C 137.599,317.71 136.932,316.71 136.5,315.5 Z"/></g>
<g><path style="opacity:0.145" fill="#bababa" d="M 397.5,283.5 C 393.088,284.447 388.588,285.447 384,286.5C 382.334,300.487 380.668,314.487 379,328.5C 378.465,332.038 377.632,335.372 376.5,338.5C 378.809,321.556 380.642,304.556 382,287.5C 382.374,286.584 382.874,285.75 383.5,285C 388.118,284.006 392.785,283.506 397.5,283.5 Z"/></g>
<g><path style="opacity:0.133" fill="#d2d2d2" d="M 168.5,314.5 C 170.293,316.426 171.293,318.759 171.5,321.5C 169.707,319.574 168.707,317.241 168.5,314.5 Z"/></g>
<g><path style="opacity:0.999" fill="#090909" d="M 285.5,322.5 C 286.78,323.931 288.447,324.598 290.5,324.5C 290.833,324.5 291.167,324.5 291.5,324.5C 295.311,325.645 299.311,325.812 303.5,325C 304.056,324.617 304.389,324.117 304.5,323.5C 306.5,323.5 308.5,323.5 310.5,323.5C 311.167,323.5 311.5,323.833 311.5,324.5C 311.822,326.722 311.155,328.556 309.5,330C 300.711,334.093 291.711,334.593 282.5,331.5C 282.027,330.094 281.027,329.427 279.5,329.5C 279.027,328.094 278.027,327.427 276.5,327.5C 276.261,325.533 276.594,323.699 277.5,322C 280.221,321.398 282.887,321.565 285.5,322.5 Z"/></g>
<g><path style="opacity:0.318" fill="#b2b2b2" d="M 370.5,314.5 C 370.844,320.098 370.178,325.432 368.5,330.5C 368.668,324.966 369.335,319.633 370.5,314.5 Z"/></g>
<g><path style="opacity:0.435" fill="#afafaf" d="M 310.5,323.5 C 308.5,323.5 306.5,323.5 304.5,323.5C 306.642,321.269 308.642,321.269 310.5,323.5 Z"/></g>
<g><path style="opacity:0.294" fill="#b6b6b6" d="M 285.5,322.5 C 287.553,322.402 289.22,323.069 290.5,324.5C 288.447,324.598 286.78,323.931 285.5,322.5 Z"/></g>
<g><path style="opacity:0.384" fill="#c4c4c4" d="M 285.5,322.5 C 282.887,321.565 280.221,321.398 277.5,322C 276.594,323.699 276.261,325.533 276.5,327.5C 274.364,325.612 274.364,323.445 276.5,321C 280.022,318.801 283.022,319.301 285.5,322.5 Z"/></g>
<g><path style="opacity:0.149" fill="#a8a8a8" d="M 304.5,323.5 C 304.389,324.117 304.056,324.617 303.5,325C 299.311,325.812 295.311,325.645 291.5,324.5C 295.881,324.628 300.215,324.295 304.5,323.5 Z"/></g>
<g><path style="opacity:0.788" fill="#7d7d7d" d="M 172.5,323.5 C 173.537,324.93 174.204,326.597 174.5,328.5C 172.787,327.365 172.12,325.698 172.5,323.5 Z"/></g>
<g><path style="opacity:0.471" fill="#8f8f8f" d="M 276.5,327.5 C 278.027,327.427 279.027,328.094 279.5,329.5C 277.973,329.573 276.973,328.906 276.5,327.5 Z"/></g>
<g><path style="opacity:0.129" fill="#c6c6c6" d="M 174.5,328.5 C 176.104,329.287 176.771,330.62 176.5,332.5C 175.326,331.486 174.66,330.153 174.5,328.5 Z"/></g>
<g><path style="opacity:0.294" fill="#a8a8a8" d="M 279.5,329.5 C 281.027,329.427 282.027,330.094 282.5,331.5C 280.973,331.573 279.973,330.906 279.5,329.5 Z"/></g>
<g><path style="opacity:0.206" fill="#bfbfbf" d="M 311.5,324.5 C 312.613,325.946 312.78,327.613 312,329.5C 309.489,331.563 306.656,333.063 303.5,334C 298.5,334.667 293.5,334.667 288.5,334C 286.277,333.434 284.277,332.6 282.5,331.5C 291.711,334.593 300.711,334.093 309.5,330C 311.155,328.556 311.822,326.722 311.5,324.5 Z"/></g>
<g><path style="opacity:0.122" fill="#cecece" d="M 176.5,332.5 C 178.669,334.34 180.002,336.674 180.5,339.5C 178.412,337.664 177.079,335.331 176.5,332.5 Z"/></g>
<g><path style="opacity:0.008" fill="#e3e3e3" d="M 167.5,334.5 C 166.833,335.167 166.167,335.833 165.5,336.5C 165.281,335.325 165.614,334.325 166.5,333.5C 167.107,333.624 167.44,333.957 167.5,334.5 Z"/></g>
<g><path style="opacity:0.051" fill="#dbdbdb" d="M 367.5,334.5 C 367.741,336.898 367.074,338.898 365.5,340.5C 365.595,338.214 366.262,336.214 367.5,334.5 Z"/></g>
<g><path style="opacity:0.384" fill="#9d9d9d" d="M 167.5,334.5 C 168.931,335.78 169.598,337.447 169.5,339.5C 168.069,338.22 167.402,336.553 167.5,334.5 Z"/></g>
<g><path style="opacity:0.161" fill="#b5b5b5" d="M 139.5,321.5 C 140.793,322.842 141.626,324.509 142,326.5C 142.284,333.253 143.118,339.92 144.5,346.5C 143.4,344.723 142.566,342.723 142,340.5C 141.675,334.083 140.842,327.749 139.5,321.5 Z"/></g>
<g><path style="opacity:0.38" fill="#bcbcbc" d="M 180.5,339.5 C 183.243,341.239 185.243,343.573 186.5,346.5C 183.757,344.761 181.757,342.427 180.5,339.5 Z"/></g>
<g><path style="opacity:0.286" fill="#afafaf" d="M 165.5,336.5 C 164.57,349.655 162.236,362.655 158.5,375.5C 160.097,362.239 162.431,349.239 165.5,336.5 Z"/></g>
<g><path style="opacity:0.02" fill="#d1d1d1" d="M 171.5,343.5 C 172.906,343.973 173.573,344.973 173.5,346.5C 172.094,346.027 171.427,345.027 171.5,343.5 Z"/></g>
<g><path style="opacity:0.173" fill="#c5c5c5" d="M 375.5,341.5 C 375.598,343.553 374.931,345.22 373.5,346.5C 373.402,344.447 374.069,342.78 375.5,341.5 Z"/></g>
<g><path style="opacity:0.161" fill="#b7b7b7" d="M 144.5,346.5 C 147.215,348.123 150.215,348.79 153.5,348.5C 153.806,351.385 153.473,354.052 152.5,356.5C 152.5,354.167 152.5,351.833 152.5,349.5C 149.058,350.172 146.391,349.172 144.5,346.5 Z"/></g>
<g><path style="opacity:0.004" fill="#d9d9d9" d="M 174.5,347.5 C 177.167,349.5 179.5,351.833 181.5,354.5C 178.167,353.167 175.833,350.833 174.5,347.5 Z"/></g>
<g><path style="opacity:0.004" fill="#eeeeee" d="M 190.5,349.5 C 191.833,349.5 192.5,350.167 192.5,351.5C 191.5,351.167 190.833,350.5 190.5,349.5 Z"/></g>
<g><path style="opacity:0.086" fill="#d8d8d8" d="M 373.5,346.5 C 373.771,348.38 373.104,349.713 371.5,350.5C 371.66,348.847 372.326,347.514 373.5,346.5 Z"/></g>
<g><path style="opacity:0.133" fill="#c7c7c7" d="M 361.5,348.5 C 361.25,350.674 360.25,352.341 358.5,353.5C 358.75,351.326 359.75,349.659 361.5,348.5 Z"/></g>
<g><path style="opacity:0.004" fill="#cfcfcf" d="M 192.5,351.5 C 194.749,352.08 196.415,353.413 197.5,355.5C 195.251,354.92 193.585,353.587 192.5,351.5 Z"/></g>
<g><path style="opacity:0.635" fill="#a4a4a4" d="M 181.5,354.5 C 184.427,355.757 186.761,357.757 188.5,360.5C 185.573,359.243 183.239,357.243 181.5,354.5 Z"/></g>
<g><path style="opacity:0.573" fill="#969696" d="M 358.5,353.5 C 358.262,355.404 357.262,356.738 355.5,357.5C 355.738,355.596 356.738,354.262 358.5,353.5 Z"/></g>
<g><path style="opacity:0.039" fill="#c1c1c1" d="M 368.5,355.5 C 368.573,357.027 367.906,358.027 366.5,358.5C 366.427,356.973 367.094,355.973 368.5,355.5 Z"/></g>
<g><path style="opacity:0.129" fill="#c7c7c7" d="M 201.5,358.5 C 205.818,359.992 209.818,361.992 213.5,364.5C 208.914,363.54 204.914,361.54 201.5,358.5 Z"/></g>
<g><path style="opacity:0.627" fill="#737373" d="M 355.5,357.5 C 354.167,360.833 351.833,363.167 348.5,364.5C 350.5,361.833 352.833,359.5 355.5,357.5 Z"/></g>
<g><path style="opacity:0.239" fill="#afafaf" d="M 188.5,360.5 C 191.455,362.122 194.122,364.122 196.5,366.5C 192.98,365.647 190.313,363.647 188.5,360.5 Z"/></g>
<g><path style="opacity:0.455" fill="#9d9d9d" d="M 348.5,364.5 C 348.027,365.906 347.027,366.573 345.5,366.5C 345.973,365.094 346.973,364.427 348.5,364.5 Z"/></g>
<g><path style="opacity:0.031" fill="#cfcfcf" d="M 364.5,361.5 C 363.581,364.089 361.914,366.089 359.5,367.5C 360.419,364.911 362.086,362.911 364.5,361.5 Z"/></g>
<g><path style="opacity:0.196" fill="#bababa" d="M 196.5,366.5 C 198.027,366.427 199.027,367.094 199.5,368.5C 197.973,368.573 196.973,367.906 196.5,366.5 Z"/></g>
<g><path style="opacity:0.192" fill="#b0b0b0" d="M 215.5,365.5 C 221.381,367.125 227.047,369.125 232.5,371.5C 226.334,370.668 220.667,368.668 215.5,365.5 Z"/></g>
<g><path style="opacity:0.431" fill="#adadad" d="M 345.5,366.5 C 345.027,367.906 344.027,368.573 342.5,368.5C 342.973,367.094 343.973,366.427 345.5,366.5 Z"/></g>
<g><path style="opacity:0.016" fill="#d3d3d3" d="M 359.5,367.5 C 358.738,369.262 357.404,370.262 355.5,370.5C 356.262,368.738 357.596,367.738 359.5,367.5 Z"/></g>
<g><path style="opacity:0.18" fill="#b3b3b3" d="M 151.5,362.5 C 151.084,368.818 149.751,374.818 147.5,380.5C 148.214,374.249 149.548,368.249 151.5,362.5 Z"/></g>
<g><path style="opacity:0.584" fill="#828282" d="M 340.5,369.5 C 337.431,372.19 333.764,373.523 329.5,373.5C 332.939,371.796 336.605,370.462 340.5,369.5 Z"/></g>
<g><path style="opacity:0.533" fill="#8c8c8c" d="M 233.5,371.5 C 236.067,371.721 238.401,372.388 240.5,373.5C 237.772,373.829 235.438,373.163 233.5,371.5 Z"/></g>
<g><path style="opacity:0.039" fill="#d1d1d1" d="M 354.5,371.5 C 354.027,372.906 353.027,373.573 351.5,373.5C 351.973,372.094 352.973,371.427 354.5,371.5 Z"/></g>
<g><path style="opacity:0.11" fill="#d3d3d3" d="M 207.5,372.5 C 209.553,372.402 211.22,373.069 212.5,374.5C 210.447,374.598 208.78,373.931 207.5,372.5 Z"/></g>
<g><path style="opacity:0.792" fill="#878787" d="M 212.5,374.5 C 214.698,374.12 216.365,374.787 217.5,376.5C 215.597,376.204 213.93,375.537 212.5,374.5 Z"/></g>
<g><path style="opacity:0.494" fill="#bababa" d="M 240.5,373.5 C 267.466,376.995 294.466,377.328 321.5,374.5C 317.409,375.895 313.076,376.728 308.5,377C 292.833,377.667 277.167,377.667 261.5,377C 254.248,376.515 247.248,375.348 240.5,373.5 Z"/></g>
<g><path style="opacity:0.569" fill="#a8a8a8" d="M 217.5,376.5 C 219.698,376.12 221.365,376.787 222.5,378.5C 220.597,378.204 218.93,377.537 217.5,376.5 Z"/></g>
<g><path style="opacity:0.012" fill="#d9d9d9" d="M 347.5,376.5 C 347.027,377.906 346.027,378.573 344.5,378.5C 344.973,377.094 345.973,376.427 347.5,376.5 Z"/></g>
<g><path style="opacity:0.004" fill="#c5c5c5" d="M 158.5,375.5 C 158.59,378.152 157.924,380.485 156.5,382.5C 156.41,379.848 157.076,377.515 158.5,375.5 Z"/></g>
<g><path style="opacity:0.718" fill="#858585" d="M 223.5,378.5 C 226.152,378.41 228.485,379.076 230.5,380.5C 229.833,380.5 229.167,380.5 228.5,380.5C 226.447,380.598 224.78,379.931 223.5,378.5 Z"/></g>
<g><path style="opacity:0.09" fill="#c2c2c2" d="M 344.5,378.5 C 341.34,381 337.673,382.333 333.5,382.5C 336.915,380.721 340.581,379.387 344.5,378.5 Z"/></g>
<g><path style="opacity:0.004" fill="#d6d6d6" d="M 228.5,380.5 C 229.167,380.5 229.833,380.5 230.5,380.5C 236.034,381.468 241.368,382.802 246.5,384.5C 240.182,384.084 234.182,382.751 228.5,380.5 Z"/></g>
<g><path style="opacity:0.251" fill="#bcbcbc" d="M 333.5,382.5 C 332.359,383.339 331.026,384.006 329.5,384.5C 327.345,384.162 325.011,384.162 322.5,384.5C 325.876,382.918 329.542,382.251 333.5,382.5 Z"/></g>
<g><path style="opacity:0.561" fill="#aaaaaa" d="M 147.5,380.5 C 147.741,382.898 147.074,384.898 145.5,386.5C 145.595,384.214 146.262,382.214 147.5,380.5 Z"/></g>
<g><path style="opacity:0.318" fill="#a4a4a4" d="M 248.5,384.5 C 253.731,384.444 258.731,385.111 263.5,386.5C 258.269,386.556 253.269,385.889 248.5,384.5 Z"/></g>
<g><path style="opacity:0.443" fill="#9e9e9e" d="M 320.5,384.5 C 315.066,385.956 309.4,386.79 303.5,387C 301.101,391.674 300.101,396.674 300.5,402C 301.43,412.825 301.597,423.658 301,434.5C 300.802,436.382 300.302,438.048 299.5,439.5C 299.043,422.43 299.543,405.43 301,388.5C 301.374,387.584 301.874,386.75 302.5,386C 308.477,385.169 314.477,384.669 320.5,384.5 Z"/></g>
<g><path style="opacity:0.392" fill="#c4c4c4" d="M 156.5,390.5 C 158.262,391.262 159.262,392.596 159.5,394.5C 157.738,393.738 156.738,392.404 156.5,390.5 Z"/></g>
<g><path style="opacity:0.039" fill="#bfbfbf" d="M 147.5,394.5 C 148.906,394.973 149.573,395.973 149.5,397.5C 148.094,397.027 147.427,396.027 147.5,394.5 Z"/></g>
<g><path style="opacity:0.004" fill="#c6c6c6" d="M 162.5,397.5 C 167.167,400.167 170.833,403.833 173.5,408.5C 169.5,405.167 165.833,401.5 162.5,397.5 Z"/></g>
<g><path style="opacity:0.012" fill="#d1d1d1" d="M 153.5,401.5 C 155.167,402.5 156.5,403.833 157.5,405.5C 155.167,405.167 153.833,403.833 153.5,401.5 Z"/></g>
<g><path style="opacity:0.196" fill="#bbbbbb" d="M 292.5,388.5 C 292.012,404.33 291.345,419.997 290.5,435.5C 290.333,421.829 290.5,408.163 291,394.5C 291.191,392.292 291.691,390.292 292.5,388.5 Z"/></g>
<g><path style="opacity:0.651" fill="#8d8d8d" d="M 163.5,411.5 C 165.833,411.833 167.167,413.167 167.5,415.5C 165.833,414.5 164.5,413.167 163.5,411.5 Z"/></g>
<g><path style="opacity:0.004" fill="#d4d4d4" d="M 173.5,408.5 C 177.463,411.129 181.129,414.129 184.5,417.5C 179.957,415.628 176.29,412.628 173.5,408.5 Z"/></g>
<g><path style="opacity:0.686" fill="#9d9d9d" d="M 169.5,417.5 C 172.427,418.757 174.761,420.757 176.5,423.5C 173.573,422.243 171.239,420.243 169.5,417.5 Z"/></g>
<g><path style="opacity:0.792" fill="#8e8e8e" d="M 184.5,417.5 C 186.23,418.026 187.564,419.026 188.5,420.5C 186.368,420.446 185.035,419.446 184.5,417.5 Z"/></g>
<g><path style="opacity:0.18" fill="#cbcbcb" d="M 188.5,420.5 C 191.614,420.555 193.948,421.888 195.5,424.5C 192.669,423.921 190.336,422.588 188.5,420.5 Z"/></g>
<g><path style="opacity:0.361" fill="#9f9f9f" d="M 176.5,423.5 C 178.027,423.427 179.027,424.094 179.5,425.5C 177.973,425.573 176.973,424.906 176.5,423.5 Z"/></g>
<g><path style="opacity:0.349" fill="#a9a9a9" d="M 179.5,425.5 C 181.404,425.738 182.738,426.738 183.5,428.5C 181.596,428.262 180.262,427.262 179.5,425.5 Z"/></g>
<g><path style="opacity:0.09" fill="#cbcbcb" d="M 183.5,428.5 C 185.153,428.66 186.486,429.326 187.5,430.5C 185.62,430.771 184.287,430.104 183.5,428.5 Z"/></g>
<g><path style="opacity:0.247" fill="#b6b6b6" d="M 206.5,429.5 C 212.392,431.129 218.058,433.129 223.5,435.5C 217.334,434.668 211.667,432.668 206.5,429.5 Z"/></g>
<g><path style="opacity:0.224" fill="#aeaeae" d="M 189.5,431.5 C 191.027,431.427 192.027,432.094 192.5,433.5C 190.973,433.573 189.973,432.906 189.5,431.5 Z"/></g>
<g><path style="opacity:0.882" fill="#777777" d="M 192.5,433.5 C 194.483,433.157 195.817,433.824 196.5,435.5C 194.847,435.34 193.514,434.674 192.5,433.5 Z"/></g>
<g><path style="opacity:0.125" fill="#b8b8b8" d="M 223.5,435.5 C 232.358,437.135 241.024,439.135 249.5,441.5C 240.445,440.734 231.779,438.734 223.5,435.5 Z"/></g>
<g><path style="opacity:0.518" fill="#a7a7a7" d="M 290.5,435.5 C 290.912,437.973 289.912,439.306 287.5,439.5C 288.512,438.128 289.512,436.795 290.5,435.5 Z"/></g>
<g><path style="opacity:0.639" fill="#9a9a9a" d="M 205.5,439.5 C 209.915,439.861 213.915,441.194 217.5,443.5C 213.098,443.074 209.098,441.74 205.5,439.5 Z"/></g>
<g><path style="opacity:0.643" fill="#9f9f9f" d="M 287.5,439.5 C 284.916,441.472 281.916,442.472 278.5,442.5C 275.833,442.5 273.167,442.5 270.5,442.5C 276.098,441.799 281.764,440.799 287.5,439.5 Z"/></g>
<g><path style="opacity:0.587" fill="#737373" d="M 250.5,441.5 C 257.255,441.207 263.922,441.54 270.5,442.5C 273.167,442.5 275.833,442.5 278.5,442.5C 275.183,443.165 271.683,443.499 268,443.5C 261.933,443.61 256.1,442.943 250.5,441.5 Z"/></g>
<g><path style="opacity:0.027" fill="#c3c3c3" d="M 217.5,443.5 C 220.228,443.171 222.562,443.837 224.5,445.5C 221.848,445.59 219.515,444.924 217.5,443.5 Z"/></g>
<g><path style="opacity:0.843" fill="#7b7b7b" d="M 225.5,445.5 C 229.286,445.32 232.619,446.32 235.5,448.5C 231.916,448.025 228.583,447.025 225.5,445.5 Z"/></g>
<g><path style="opacity:0.198" fill="#c3c3c3" d="M 292.5,447.5 C 292.389,448.117 292.056,448.617 291.5,449C 278.717,452.364 265.717,453.364 252.5,452C 249.964,451.814 247.631,451.314 245.5,450.5C 261.413,452.611 277.08,451.611 292.5,447.5 Z"/></g>
</svg>
